<svg width="15" height="15" viewBox="0 0 15 15" fill="none" xmlns="http://www.w3.org/2000/svg">
<path d="M10.6191 9.42857H9.93949L9.68466 9.17143C10.5342 8.22858 11.0439 6.94286 11.0439 5.57143C11.0439 2.48572 8.58024 3.8147e-06 5.52193 3.8147e-06C2.46363 3.8147e-06 -4.76837e-06 2.48572 -4.76837e-06 5.57143C-4.76837e-06 8.65715 2.46363 11.1429 5.52193 11.1429C6.88118 11.1429 8.15547 10.6286 9.08996 9.77143L9.34482 10.0285V10.7143L13.5925 15L14.8668 13.7143L10.6191 9.42857ZM5.52193 9.42857C3.39811 9.42857 1.69905 7.71429 1.69905 5.57143C1.69905 3.42858 3.39811 1.71429 5.52193 1.71429C7.64576 1.71429 9.34482 3.42858 9.34482 5.57143C9.34482 7.71429 7.64576 9.42857 5.52193 9.42857Z" fill="#999999"/>
</svg>
