<svg width="31" height="30" viewBox="0 0 31 30" fill="none" xmlns="http://www.w3.org/2000/svg">
<path d="M15.298 30C23.7469 30 30.5961 23.2843 30.5961 15C30.5961 6.71573 23.7469 0 15.298 0C6.84917 0 0 6.71573 0 15C0 23.2843 6.84917 30 15.298 30Z" fill="black"/>
<path d="M5.69823 15.7437C7.48657 14.7778 9.48283 13.9717 11.348 13.1615C14.5569 11.8343 17.7786 10.5302 21.0327 9.31609C21.6659 9.10923 22.8035 8.90696 22.915 9.82692C22.8539 11.1292 22.6027 12.4238 22.4303 13.7184C21.9929 16.5654 21.4873 19.4026 20.9942 22.2402C20.8243 23.1855 19.6168 23.6747 18.8441 23.0698C16.9871 21.84 15.1159 20.6221 13.2827 19.3637C12.6822 18.7655 13.2391 17.9062 13.7754 17.479C15.3048 16.0011 16.9268 14.7455 18.3763 13.1913C18.7673 12.2655 17.612 13.0457 17.2309 13.2848C15.1371 14.6995 13.0946 16.2006 10.8871 17.444C9.7595 18.0526 8.44527 17.5325 7.31819 17.1929C6.30764 16.7827 4.82677 16.3693 5.69812 15.7438L5.69823 15.7437Z" fill="white"/>
</svg>
