<svg width="31" height="30" viewBox="0 0 31 30" fill="none" xmlns="http://www.w3.org/2000/svg">
<path d="M0 15C0 6.71573 6.84917 0 15.298 0C23.7469 0 30.5961 6.71573 30.5961 15C30.5961 23.2843 23.7469 30 15.298 30C6.84917 30 0 23.2843 0 15Z" fill="black"/>
<path d="M14.8399 12.1922L14.872 12.7112L14.337 12.6477C12.3894 12.404 10.688 11.5778 9.24345 10.1902L8.5372 9.50169L8.35529 10.0101C7.97007 11.1435 8.21618 12.3405 9.01873 13.1455C9.44676 13.5904 9.35045 13.654 8.61211 13.3891C8.35529 13.3044 8.13058 13.2408 8.10918 13.2726C8.03427 13.3468 8.29109 14.3107 8.4944 14.692C8.77262 15.2217 9.33975 15.7407 9.96039 16.0479L10.4847 16.2915L9.86409 16.3021C9.26485 16.3021 9.24345 16.3127 9.30765 16.5351C9.52166 17.2236 10.367 17.9545 11.3087 18.2723L11.9721 18.4947L11.3943 18.8337C10.5382 19.321 9.53236 19.5964 8.5265 19.6175C8.04497 19.6281 7.64905 19.6705 7.64905 19.7023C7.64905 19.8082 8.95453 20.4014 9.71428 20.6344C11.9935 21.3229 14.7008 21.0264 16.7339 19.8506C18.1785 19.0138 19.6231 17.3507 20.2972 15.7407C20.6611 14.8827 21.0249 13.315 21.0249 12.5629C21.0249 12.0757 21.057 12.0121 21.6562 11.4295C22.0093 11.0906 22.3411 10.7198 22.4053 10.6139C22.5123 10.4126 22.5016 10.4126 21.9558 10.5927C21.0463 10.9105 20.9179 10.8681 21.3673 10.3915C21.699 10.0525 22.0949 9.43813 22.0949 9.25806C22.0949 9.22628 21.9344 9.27924 21.7525 9.37458C21.5599 9.4805 21.1319 9.63939 20.8109 9.73472L20.233 9.91479L19.7087 9.56524C19.4198 9.37458 19.0132 9.16273 18.7991 9.09917C18.2534 8.95087 17.4188 8.97206 16.9265 9.14154C15.5889 9.6182 14.7436 10.8469 14.8399 12.1922Z" fill="white"/>
</svg>
