<svg width="32" height="31" viewBox="0 0 32 31" fill="none" xmlns="http://www.w3.org/2000/svg">
<path fill-rule="evenodd" clip-rule="evenodd" d="M11.5379 0.937012H20.9305C29.5026 0.937012 31.5322 2.92713 31.5322 11.3322V20.5418C31.5322 28.9469 29.5026 30.937 20.9305 30.937H11.5379C2.96582 30.937 0.936157 28.9469 0.936157 20.5418V11.3322C0.936157 2.92713 2.96582 0.937012 11.5379 0.937012Z" fill="black"/>
<path fill-rule="evenodd" clip-rule="evenodd" d="M25.9832 11.269C26.1343 10.8033 25.9832 10.4645 25.3138 10.4645H23.0898C22.5284 10.4645 22.2693 10.7609 22.1182 11.0785C22.1182 11.0785 20.9738 13.7885 19.376 15.5457C18.8578 16.0538 18.6202 16.2232 18.3395 16.2232C18.1884 16.2232 17.9941 16.0538 17.9941 15.588V11.2479C17.9941 10.6974 17.8213 10.4434 17.3463 10.4434H13.8484C13.5029 10.4434 13.287 10.6974 13.287 10.9515C13.287 11.4808 14.0859 11.6078 14.1723 13.0898V16.3079C14.1723 17.0065 14.0427 17.1335 13.762 17.1335C13.0063 17.1335 11.1709 14.4024 10.0697 11.2902C9.85382 10.6762 9.6379 10.4434 9.07651 10.4434H6.83092C6.18316 10.4434 6.0752 10.7398 6.0752 11.0573C6.0752 11.629 6.83092 14.5083 9.59472 18.3192C11.4301 20.9232 14.0427 22.3206 16.3962 22.3206C17.8213 22.3206 17.9941 22.003 17.9941 21.4737V19.5048C17.9941 18.8696 18.1236 18.7638 18.5771 18.7638C18.9009 18.7638 19.4839 18.9331 20.801 20.1822C22.3125 21.6642 22.5716 22.3417 23.4137 22.3417H25.6377C26.2855 22.3417 26.5877 22.0242 26.415 21.4102C26.2207 20.7962 25.4865 19.907 24.5365 18.8484C24.0183 18.2556 23.241 17.5993 23.0035 17.2818C22.6796 16.8583 22.7659 16.6889 23.0035 16.3079C22.9819 16.3079 25.7025 12.5393 25.9832 11.269Z" fill="white"/>
</svg>
